<svg viewBox="0 0 1920 2143" fill="none" xmlns="http://www.w3.org/2000/svg">
<path d="M-559.495 1916.49C-641.422 1800.32 -670.479 1679.48 -647.874 1554.82C-624.059 1429.31 -552.862 1324.74 -431.863 1239.41C-341.113 1175.41 -255.713 1142.36 -174.807 1141.47C-93.9019 1140.58 -17.6962 1148.44 52.5997 1165.91C122.896 1183.38 190.275 1199.28 252.674 1213.25C315.073 1227.23 370.224 1215.51 418.623 1181.38C451.293 1158.34 472.295 1129.03 485.758 1094.17C498.366 1058.1 507.205 1019.25 511.419 976.413C515.634 933.577 519.352 887.468 522.573 838.086C524.941 787.493 533.499 737.971 547.037 690.372C560.932 640.71 583.08 592.475 615.049 542.749C647.017 493.024 694.283 447.007 755.993 403.486C818.912 359.112 878.126 330.036 934.487 317.467C992.058 304.044 1044.93 299.372 1096.37 302.954C1147.82 306.535 1196.13 315.95 1242.52 330.346C1289.76 345.951 1334.44 357.926 1375.35 367.124C1417.12 377.533 1456.68 382.247 1493.68 383.332C1530.68 384.416 1564.49 373.26 1597.16 350.22C1685.48 287.926 1694.41 205.528 1623.58 105.091L1545.06 -6.23691L1829.41 -206.773L1919.02 -79.7139C2000.09 35.2443 2029.15 156.085 2006.55 280.744C1983.58 407.466 1912.39 512.037 1791.39 597.371C1700.64 661.372 1614.38 693.211 1532.27 694.952C1449.3 695.484 1373.1 687.621 1301.95 668.945C1231.65 651.479 1164.27 635.579 1104.79 623.17C1044.45 609.551 990.512 620.414 942.112 654.548C893.713 688.681 865.374 735.846 859.16 796.399C852.946 856.952 845.662 923.696 838.519 995.776C831.375 1067.86 815.265 1142.64 786.915 1220.61C758.564 1298.59 697.556 1368.79 605.596 1433.65C542.677 1478.02 483.463 1507.1 427.102 1519.67C369.532 1533.09 316.66 1537.76 265.216 1534.18C213.771 1530.6 165.459 1521.18 119.071 1506.79C71.8286 1491.18 27.1469 1479.21 -13.7646 1470.01C-55.5295 1459.6 -95.0907 1454.89 -132.092 1453.8C-169.093 1452.72 -202.896 1463.88 -235.566 1486.92C-323.896 1549.21 -333.675 1630.4 -264.549 1728.41L-186.035 1839.74L-471.593 2041.13L-559.495 1916.49Z" fill="#F3F6FA"/>
</svg>
